<svg width="24" height="18" viewBox="0 0 24 18" fill="none" xmlns="http://www.w3.org/2000/svg">
<path d="M22.5 15C22.5 15.8284 21.8284 16.5 21 16.5H3C2.17157 16.5 1.5 15.8284 1.5 15V6C1.5 5.17157 2.17157 4.5 3 4.5H4.75736C5.95083 4.5 7.09543 4.02589 7.93934 3.18198L9.18198 1.93934C9.46329 1.65803 9.84482 1.5 10.2426 1.5H13.7574C14.1552 1.5 14.5367 1.65804 14.818 1.93934L16.0607 3.18198C16.9046 4.0259 18.0492 4.5 19.2426 4.5H21C21.8284 4.5 22.5 5.17157 22.5 6V15ZM3 3C1.34315 3 0 4.34315 0 6V15C0 16.6569 1.34315 18 3 18H21C22.6569 18 24 16.6569 24 15V6C24 4.34315 22.6569 3 21 3H19.2426C18.447 3 17.6839 2.68393 17.1213 2.12132L15.8787 0.87868C15.3161 0.316071 14.553 0 13.7574 0H10.2426C9.44699 0 8.68393 0.316069 8.12132 0.878679L6.87868 2.12132C6.31607 2.68393 5.55301 3 4.75736 3H3Z" fill="white"/>
<path d="M12 13.5C9.92893 13.5 8.25 11.8211 8.25 9.75C8.25 7.67893 9.92893 6 12 6C14.0711 6 15.75 7.67893 15.75 9.75C15.75 11.8211 14.0711 13.5 12 13.5ZM12 15C14.8995 15 17.25 12.6495 17.25 9.75C17.25 6.8505 14.8995 4.5 12 4.5C9.1005 4.5 6.75 6.8505 6.75 9.75C6.75 12.6495 9.1005 15 12 15Z" fill="white"/>
<path d="M4.5 6.75C4.5 7.16421 4.16421 7.5 3.75 7.5C3.33579 7.5 3 7.16421 3 6.75C3 6.33579 3.33579 6 3.75 6C4.16421 6 4.5 6.33579 4.5 6.75Z" fill="white"/>
</svg>
